<svg xmlns="http://www.w3.org/2000/svg" viewBox="0 0 333.33 333.33" fill-rule="evenodd" clip-rule="evenodd" shape-rendering="geometricPrecision" text-rendering="geometricPrecision" image-rendering="optimizeQuality"><path d="M52.65 152.84l114.01-83.18 114.01 83.18v160.05H52.65V152.84zm53.89 20.46h40.16v124.79h119.17V160.66l-99.21-73.09-99.21 73.09v137.43h39.09V173.3zm84.2 0h-29.79v36.28h29.79V173.3zm0 79.03h-29.79v-36.28h29.79v36.28zm6.25 0h29.79v-36.28h-29.79v36.28zm0-79.03h29.79v36.28h-29.79V173.3zm38.34-125.67h51.81v62.36l33.68 25.04v57.7H290.4v-44.04L166.65 56.7 42.9 148.69v44.04H12.49v-57.71L166.65 20.43l68.67 51.04V47.63z" fill="#fff"/></svg>