<?xml version="1.0" encoding="UTF-8" standalone="no"?>
<svg
   xmlns:dc="http://purl.org/dc/elements/1.1/"
   xmlns:cc="http://creativecommons.org/ns#"
   xmlns:rdf="http://www.w3.org/1999/02/22-rdf-syntax-ns#"
   xmlns:svg="http://www.w3.org/2000/svg"
   xmlns="http://www.w3.org/2000/svg"
   id="svg8"
   version="1.1"
   y="0px"
   x="0px"
   viewBox="0 0 24 24"
   fill="#FFFFFF"
   width="100px"
   height="100px">
  <metadata
     id="metadata14">
    <rdf:RDF>
      <cc:Work
         rdf:about="">
        <dc:format>image/svg+xml</dc:format>
        <dc:type
           rdf:resource="http://purl.org/dc/dcmitype/StillImage" />
      </cc:Work>
    </rdf:RDF>
  </metadata>
  <defs
     id="defs12" />
  <title
     id="title2">user, interface, ui, app, web, forward, share</title>
  <g
     id="g6"
     data-name="Share 1">
    <path
       id="path4"
       d="M21.71,11.71l-7,7a1,1,0,0,1-1.09.21A1,1,0,0,1,13,18V15a11.21,11.21,0,0,0-9.11,5.41A1,1,0,0,1,3,21,1.12,1.12,0,0,1,2.69,21,1,1,0,0,1,2,19.84c0-.13,2.1-12,11-12.79V4a1,1,0,0,1,.62-.92,1,1,0,0,1,1.09.21l7,7A1,1,0,0,1,21.71,11.71Z" />
  </g>
</svg>
