<svg height='100px' width='100px'  fill="#FFFFFF" xmlns:x="http://ns.adobe.com/Extensibility/1.0/" xmlns:i="http://ns.adobe.com/AdobeIllustrator/10.0/" xmlns:graph="http://ns.adobe.com/Graphs/1.0/" xmlns="http://www.w3.org/2000/svg" xmlns:xlink="http://www.w3.org/1999/xlink" version="1.1" x="0px" y="0px" viewBox="0 0 100 100" style="enable-background:new 0 0 100 100;" xml:space="preserve"><g><g i:extraneous="self"><g><path d="M84,8.5H16c-7.4,0-13.5,6-13.5,13.5v49.3c0,7.4,6,13.5,13.5,13.5h0.4l1.1,4.4c0.4,1.4,1.7,2.4,3.1,2.4h10.5     c1.5,0,2.8-1,3.1-2.4l1.1-4.4h29.3l1.1,4.4c0.4,1.4,1.7,2.4,3.1,2.4h10.5c1.5,0,2.8-1,3.1-2.4l1.1-4.4H84c7.4,0,13.5-6,13.5-13.5     V22C97.5,14.5,91.5,8.5,84,8.5z M90.7,71.3c0,3.7-3,6.7-6.7,6.7H16c-3.7,0-6.7-3-6.7-6.7V22c0-3.7,3-6.7,6.7-6.7H84     c3.7,0,6.7,3,6.7,6.7V71.3z"></path><path d="M57.8,39c-4.2,0-7.7,3.4-7.7,7.7c0,4.2,3.4,7.7,7.7,7.7c4.2,0,7.7-3.4,7.7-7.7C65.5,42.4,62.1,39,57.8,39z M57.8,49.6     c-1.6,0-2.9-1.3-2.9-2.9c0-1.6,1.3-2.9,2.9-2.9c1.6,0,2.9,1.3,2.9,2.9C60.8,48.2,59.5,49.6,57.8,49.6z"></path><path d="M57.8,23.4c-12.8,0-23.2,10.4-23.2,23.2s10.4,23.2,23.2,23.2C70.6,69.8,81,59.4,81,46.6S70.6,23.4,57.8,23.4z M71.3,48.8     h-1.7c-0.3,1.7-1,3.3-2,4.7l1.2,1.2c0.9,0.8,0.9,2.2,0,3c-0.4,0.4-1,0.6-1.5,0.6c-0.5,0-1.1-0.2-1.5-0.6l-1.2-1.2     c-1.4,0.9-3,1.6-4.7,1.9v1.7c0,1.2-1,2.1-2.1,2.1c-1.2,0-2.1-1-2.1-2.1v-1.8c-1.7-0.3-3.3-1-4.6-2l-1.3,1.3     c-0.4,0.4-1,0.6-1.5,0.6c-0.6,0-1.1-0.2-1.5-0.6c-0.8-0.8-0.8-2.2,0-3l1.3-1.3c-0.9-1.4-1.5-2.9-1.8-4.6h-1.9     c-1.2,0-2.1-1-2.1-2.1s1-2.1,2.1-2.1h1.9c0.3-1.7,1-3.2,1.9-4.6l-1.3-1.3c-0.8-0.8-0.8-2.2,0-3c0.8-0.8,2.2-0.8,3,0l1.3,1.3     c1.4-0.9,2.9-1.6,4.6-1.9v-1.8c0-1.2,1-2.1,2.1-2.1c1.2,0,2.1,1,2.1,2.1v1.8c1.7,0.3,3.3,1,4.6,1.9l1.2-1.2c0.9-0.8,2.2-0.8,3,0     c0.8,0.8,0.8,2.2,0,3l-1.2,1.2c1,1.4,1.6,3,1.9,4.7h1.7c1.2,0,2.1,1,2.1,2.1C73.4,47.9,72.5,48.8,71.3,48.8z"></path><path d="M22.3,24.7c-1.9,0-3.4,1.5-3.4,3.4v37c0,1.9,1.5,3.4,3.4,3.4c1.9,0,3.4-1.5,3.4-3.4v-37C25.7,26.2,24.2,24.7,22.3,24.7z"></path></g></g></g></svg>